<svg width="456" height="148" viewBox="0 0 456 148" fill="none" xmlns="http://www.w3.org/2000/svg">
<path d="M304.018 3.32928C304.018 -10.6597 292.678 -22 278.689 -22C264.7 -22 253.36 -10.6597 253.36 3.32928C253.36 17.3183 264.7 28.6586 278.689 28.6586C292.678 28.6586 304.018 17.3183 304.018 3.32928Z" fill="#58C2C0"/>
<path d="M278.689 14.6388C275.69 14.6388 272.813 13.4474 270.692 11.3266C268.572 9.20576 267.38 6.32932 267.38 3.33004C267.38 0.330761 268.572 -2.54568 270.692 -4.66649C272.813 -6.7873 275.69 -7.97876 278.689 -7.97876C281.689 -7.97876 284.566 -6.7875 286.687 -4.66686C288.809 -2.54622 290.002 0.330202 290.004 3.33004C290.002 6.32988 288.809 9.2063 286.687 11.3269C284.566 13.4476 281.689 14.6388 278.689 14.6388Z" fill="#AFDFBB"/>
<path d="M354.677 -22H304.019V28.6586H354.677V-22Z" fill="#041F72"/>
<path d="M253.335 28.6586H202.677C202.677 15.2231 208.014 2.33787 217.514 -7.16245C227.015 -16.6628 239.9 -22 253.335 -22V28.6586Z" fill="#E9E5D9"/>
<path d="M354.683 -22H405.341C405.341 -8.56451 400.004 4.32069 390.504 13.821C381.004 23.3213 368.118 28.6586 354.683 28.6586V-22Z" fill="#58C2C0"/>
<path d="M405.342 -22H456V28.6586C442.565 28.6586 429.68 23.3213 420.179 13.821C410.679 4.32069 405.342 -8.56451 405.342 -22Z" fill="#E9E5D9"/>
<path d="M253.335 79.316C239.9 79.316 227.015 73.9788 217.514 64.4785C208.014 54.9782 202.677 42.093 202.677 28.6575H253.335V79.316Z" fill="#58C2C0"/>
<path d="M253.336 57.4645C249.553 57.4645 245.807 56.7194 242.312 55.2717C238.817 53.824 235.641 51.7021 232.966 49.0271C230.291 46.3521 228.169 43.1765 226.721 39.6814C225.274 36.1864 224.529 32.4405 224.529 28.6575H253.336V57.4645Z" fill="#AFDFBB"/>
<path d="M304.018 28.6575H253.36V79.316H304.018V28.6575Z" fill="#041F72"/>
<path d="M289.53 43.1487H267.849V64.83H289.53V43.1487Z" fill="#E9E5D9"/>
<path d="M354.677 28.6575H304.019V79.316H354.677V28.6575Z" fill="#E9E5D9"/>
<path d="M354.683 28.6575V79.316H304C304 72.6614 305.311 66.072 307.858 59.9242C310.406 53.7765 314.14 48.1908 318.846 43.4864C323.553 38.782 329.14 35.051 335.289 32.5066C341.438 29.9622 348.028 28.6543 354.683 28.6575Z" fill="#58C2C0"/>
<path d="M456 28.6575V79.316H405.342C405.342 65.8805 410.679 52.9953 420.179 43.495C429.68 33.9947 442.565 28.6575 456 28.6575Z" fill="#58C2C0"/>
<path d="M354.683 28.6575C361.335 28.6575 367.923 29.9678 374.069 32.5136C380.215 35.0595 385.8 38.7909 390.504 43.495C395.208 48.1991 398.939 53.7837 401.485 59.9298C404.031 66.076 405.341 72.6635 405.341 79.316H354.683V28.6575Z" fill="#AFDFBB"/>
<path d="M304.018 79.3179H253.36V129.976H304.018V79.3179Z" fill="#AFDFBB"/>
<path d="M354.677 79.3179H304.019V129.976H354.677V79.3179Z" fill="#F9FBFC"/>
<path d="M253.36 104.647C253.36 90.6582 242.02 79.3179 228.031 79.3179C214.042 79.3179 202.701 90.6582 202.701 104.647C202.701 118.636 214.042 129.976 228.031 129.976C242.02 129.976 253.36 118.636 253.36 104.647Z" fill="#041F72"/>
<path d="M228.031 115.951C225.033 115.951 222.158 114.76 220.038 112.64C217.919 110.521 216.728 107.646 216.728 104.648C216.728 101.65 217.919 98.7754 220.038 96.6557C222.158 94.536 225.033 93.3452 228.031 93.3452C229.517 93.3428 230.988 93.6334 232.362 94.2004C233.735 94.7673 234.983 95.5995 236.035 96.6493C237.086 97.6991 237.92 98.9459 238.49 100.318C239.059 101.691 239.352 103.162 239.352 104.648C239.352 106.134 239.059 107.605 238.49 108.978C237.92 110.35 237.086 111.597 236.035 112.647C234.983 113.696 233.735 114.529 232.362 115.096C230.988 115.662 229.517 115.953 228.031 115.951Z" fill="#58C2C0"/>
<path d="M405.341 79.3179H354.683V129.976H405.341V79.3179Z" fill="#F9FBFC"/>
<path d="M304 79.3179H354.659V130.001C348.004 130.001 341.415 128.69 335.267 126.142C329.119 123.595 323.533 119.861 318.829 115.155C314.125 110.448 310.394 104.861 307.849 98.7115C305.305 92.5625 303.997 85.9725 304 79.3179Z" fill="#041F72"/>
<path d="M354.683 79.3179H405.341C405.345 85.9725 404.037 92.5625 401.492 98.7115C398.948 104.861 395.217 110.448 390.512 115.155C385.808 119.861 380.222 123.595 374.075 126.142C367.927 128.69 361.337 130.001 354.683 130.001V79.3179Z" fill="#58C2C0"/>
<path d="M354.683 79.318H329.597C329.597 76.024 330.246 72.7622 331.507 69.7189C332.767 66.6757 334.615 63.9106 336.945 61.5816C339.274 59.2527 342.04 57.4054 345.083 56.1454C348.127 54.8854 351.389 54.2372 354.683 54.238V79.318Z" fill="#F9FBFC"/>
<path d="M354.683 54.238C361.336 54.238 367.717 56.881 372.421 61.5856C377.126 66.2901 379.769 72.6709 379.769 79.3241H354.683V54.238Z" fill="#58C2C0"/>
<path d="M354.683 104.404C348.03 104.404 341.649 101.761 336.944 97.0564C332.24 92.3519 329.597 85.9711 329.597 79.3179H354.683V104.404Z" fill="#AFDFBB"/>
<path d="M354.683 104.404V79.3179H379.763C379.764 82.6119 379.116 85.8739 377.856 88.9174C376.595 91.961 374.748 94.7265 372.419 97.056C370.09 99.3856 367.325 101.234 364.282 102.494C361.239 103.755 357.977 104.404 354.683 104.404Z" fill="#041F72"/>
<path d="M456 130.001H405.336V79.3179C411.991 79.3179 418.58 80.629 424.728 83.1762C430.877 85.7235 436.463 89.4571 441.167 94.1637C445.872 98.8702 449.604 104.458 452.149 110.607C454.694 116.756 456.003 123.346 456 130.001Z" fill="#041F72"/>
<path d="M253.336 180.64C239.908 180.634 227.031 175.296 217.537 165.801C208.042 156.305 202.706 143.428 202.701 130H253.336V180.64Z" fill="#E9E5D9"/>
<path d="M304.018 129.981H253.36V180.64H304.018V129.981Z" fill="#041F72"/>
<path d="M304.024 180.64H253.36L304.024 129.981V180.64Z" fill="#041F72"/>
<path d="M304 130C317.435 130 330.321 135.337 339.821 144.838C349.321 154.338 354.659 167.223 354.659 180.659H304V130Z" fill="#58C2C0"/>
<path d="M456 180.64H405.336V130C418.771 130 431.656 135.337 441.157 144.838C450.657 154.338 455.994 167.223 455.994 180.659L456 180.64Z" fill="#AFDFBB"/>
<path d="M405.341 130V180.659H354.683C354.683 167.223 360.02 154.338 369.52 144.838C379.021 135.337 391.906 130 405.341 130Z" fill="#041F72"/>
<path d="M405.341 130V180.659H354.683C354.683 167.223 360.02 154.338 369.52 144.838C379.021 135.337 391.906 130 405.341 130Z" fill="#041F72"/>
<path d="M259.676 97.5563C260.322 97.5563 260.94 97.3001 261.396 96.844C261.852 96.3879 262.108 95.7693 262.108 95.1243C262.107 94.4748 261.849 93.8522 261.391 93.3915C260.927 92.9345 260.303 92.677 259.652 92.6741C259.002 92.6741 258.378 92.9325 257.917 93.3926C257.457 93.8527 257.199 94.4767 257.199 95.1274C257.199 95.778 257.457 96.402 257.917 96.8621C258.378 97.3222 259.002 97.5806 259.652 97.5806" fill="#F9FBFC"/>
<path d="M284.951 97.556C285.602 97.556 286.226 97.2975 286.686 96.8374C287.146 96.3773 287.405 95.7533 287.405 95.1027C287.405 94.452 287.146 93.828 286.686 93.368C286.226 92.9079 285.602 92.6494 284.951 92.6494C284.301 92.6494 283.677 92.9079 283.217 93.368C282.757 93.828 282.498 94.452 282.498 95.1027C282.498 95.7533 282.757 96.3773 283.217 96.8374C283.677 97.2975 284.301 97.556 284.951 97.556Z" fill="#F9FBFC"/>
<path d="M272.324 97.556C272.974 97.556 273.598 97.2975 274.058 96.8374C274.518 96.3773 274.777 95.7533 274.777 95.1027C274.777 94.452 274.518 93.828 274.058 93.368C273.598 92.9079 272.974 92.6494 272.324 92.6494C271.673 92.6494 271.049 92.9079 270.589 93.368C270.129 93.828 269.87 94.452 269.87 95.1027C269.87 95.7533 270.129 96.3773 270.589 96.8374C271.049 97.2975 271.673 97.556 272.324 97.556Z" fill="#F9FBFC"/>
<path d="M297.64 97.5566C298.202 97.5533 298.745 97.3557 299.178 96.9974C299.61 96.639 299.906 96.1419 300.013 95.5905C300.121 95.0392 300.034 94.4676 299.768 93.9729C299.502 93.4781 299.073 93.0907 298.554 92.8765C298.034 92.6622 297.457 92.6343 296.92 92.7976C296.382 92.9608 295.918 93.305 295.605 93.7719C295.293 94.2387 295.151 94.7993 295.205 95.3584C295.259 95.9175 295.505 96.4408 295.901 96.8392C296.364 97.2984 296.989 97.5563 297.64 97.5566Z" fill="#F9FBFC"/>
<path d="M259.677 87.4776C260.328 87.4747 260.952 87.2172 261.416 86.7602C261.647 86.5338 261.83 86.2637 261.955 85.9656C262.08 85.6676 262.144 85.3476 262.144 85.0243C262.144 84.7011 262.08 84.3811 261.955 84.083C261.83 83.785 261.647 83.5149 261.416 83.2885C260.952 82.8314 260.328 82.5739 259.677 82.571C259.026 82.571 258.402 82.8295 257.942 83.2896C257.482 83.7497 257.224 84.3737 257.224 85.0243C257.224 85.675 257.482 86.299 257.942 86.7591C258.402 87.2191 259.026 87.4776 259.677 87.4776Z" fill="#F9FBFC"/>
<path d="M284.951 87.4776C285.602 87.4776 286.226 87.2191 286.686 86.7591C287.146 86.299 287.405 85.675 287.405 85.0243C287.405 84.3737 287.146 83.7497 286.686 83.2896C286.226 82.8295 285.602 82.571 284.951 82.571C284.301 82.571 283.677 82.8295 283.217 83.2896C282.757 83.7497 282.498 84.3737 282.498 85.0243C282.498 85.675 282.757 86.299 283.217 86.7591C283.677 87.2191 284.301 87.4776 284.951 87.4776Z" fill="#F9FBFC"/>
<path d="M272.324 87.4776C272.974 87.4776 273.598 87.2191 274.058 86.7591C274.518 86.299 274.777 85.675 274.777 85.0243C274.777 84.3737 274.518 83.7497 274.058 83.2896C273.598 82.8295 272.974 82.571 272.324 82.571C271.673 82.571 271.049 82.8295 270.589 83.2896C270.129 83.7497 269.87 84.3737 269.87 85.0243C269.87 85.675 270.129 86.299 270.589 86.7591C271.049 87.2191 271.673 87.4776 272.324 87.4776Z" fill="#F9FBFC"/>
<path d="M297.64 87.4753C298.202 87.472 298.745 87.2744 299.178 86.916C299.61 86.5577 299.906 86.0606 300.013 85.5092C300.121 84.9579 300.034 84.3863 299.768 83.8916C299.502 83.3968 299.073 83.0094 298.554 82.7952C298.034 82.5809 297.457 82.553 296.92 82.7163C296.382 82.8795 295.918 83.2237 295.605 83.6906C295.293 84.1574 295.151 84.718 295.205 85.2771C295.259 85.8362 295.505 86.3594 295.901 86.7578C296.364 87.2171 296.989 87.475 297.64 87.4753Z" fill="#F9FBFC"/>
<path d="M259.676 107.638C260.322 107.638 260.94 107.382 261.396 106.926C261.852 106.469 262.108 105.851 262.108 105.206C262.107 104.556 261.849 103.934 261.391 103.473C260.927 103.016 260.303 102.758 259.652 102.756C259.002 102.756 258.378 103.014 257.917 103.474C257.457 103.934 257.199 104.558 257.199 105.209C257.199 105.86 257.457 106.484 257.917 106.944C258.378 107.404 259.002 107.662 259.652 107.662" fill="#F9FBFC"/>
<path d="M284.951 107.637C285.602 107.637 286.226 107.379 286.686 106.919C287.146 106.459 287.405 105.835 287.405 105.184C287.405 104.533 287.146 103.909 286.686 103.449C286.226 102.989 285.602 102.731 284.951 102.731C284.301 102.731 283.677 102.989 283.217 103.449C282.757 103.909 282.498 104.533 282.498 105.184C282.498 105.835 282.757 106.459 283.217 106.919C283.677 107.379 284.301 107.637 284.951 107.637Z" fill="#F9FBFC"/>
<path d="M272.324 107.637C272.974 107.637 273.598 107.379 274.058 106.919C274.518 106.459 274.777 105.835 274.777 105.184C274.777 104.533 274.518 103.909 274.058 103.449C273.598 102.989 272.974 102.731 272.324 102.731C271.673 102.731 271.049 102.989 270.589 103.449C270.129 103.909 269.87 104.533 269.87 105.184C269.87 105.835 270.129 106.459 270.589 106.919C271.049 107.379 271.673 107.637 272.324 107.637Z" fill="#F9FBFC"/>
<path d="M297.64 107.638C298.201 107.639 298.745 107.446 299.18 107.091C299.615 106.737 299.914 106.243 300.027 105.693C300.139 105.144 300.058 104.572 299.797 104.075C299.536 103.579 299.112 103.187 298.595 102.968C298.079 102.749 297.503 102.714 296.964 102.871C296.425 103.028 295.958 103.366 295.64 103.829C295.322 104.291 295.174 104.849 295.22 105.408C295.267 105.967 295.505 106.493 295.895 106.896C296.358 107.356 296.983 107.614 297.634 107.614" fill="#F9FBFC"/>
<path d="M259.676 117.719C260.322 117.719 260.94 117.463 261.396 117.007C261.852 116.551 262.108 115.932 262.108 115.287C262.107 114.638 261.849 114.015 261.391 113.554C260.927 113.097 260.303 112.84 259.652 112.837C259.002 112.837 258.378 113.095 257.917 113.555C257.457 114.016 257.199 114.64 257.199 115.29C257.199 115.941 257.457 116.565 257.917 117.025C258.378 117.485 259.002 117.743 259.652 117.743" fill="#F9FBFC"/>
<path d="M284.951 117.719C285.602 117.719 286.226 117.46 286.686 117C287.146 116.54 287.405 115.916 287.405 115.266C287.405 114.615 287.146 113.991 286.686 113.531C286.226 113.071 285.602 112.812 284.951 112.812C284.301 112.812 283.677 113.071 283.217 113.531C282.757 113.991 282.498 114.615 282.498 115.266C282.498 115.916 282.757 116.54 283.217 117C283.677 117.46 284.301 117.719 284.951 117.719Z" fill="#F9FBFC"/>
<path d="M272.324 117.719C272.974 117.719 273.598 117.46 274.058 117C274.518 116.54 274.777 115.916 274.777 115.266C274.777 114.615 274.518 113.991 274.058 113.531C273.598 113.071 272.974 112.812 272.324 112.812C271.673 112.812 271.049 113.071 270.589 113.531C270.129 113.991 269.87 114.615 269.87 115.266C269.87 115.916 270.129 116.54 270.589 117C271.049 117.46 271.673 117.719 272.324 117.719Z" fill="#F9FBFC"/>
<path d="M297.64 117.719C298.202 117.716 298.745 117.519 299.178 117.16C299.61 116.802 299.906 116.305 300.013 115.753C300.121 115.202 300.034 114.63 299.768 114.136C299.502 113.641 299.073 113.254 298.554 113.039C298.034 112.825 297.457 112.797 296.92 112.96C296.382 113.124 295.918 113.468 295.605 113.935C295.293 114.402 295.151 114.962 295.205 115.521C295.259 116.08 295.505 116.604 295.901 117.002C296.364 117.461 296.989 117.719 297.64 117.719Z" fill="#F9FBFC"/>
<path d="M259.677 127.798C260.322 127.798 260.94 127.541 261.397 127.085C261.853 126.629 262.109 126.011 262.109 125.366C262.107 124.716 261.849 124.093 261.391 123.633C260.928 123.176 260.304 122.918 259.653 122.915C259.008 122.915 258.389 123.172 257.933 123.628C257.477 124.084 257.221 124.702 257.221 125.347C257.223 125.998 257.481 126.622 257.938 127.086C258.399 127.544 259.021 127.802 259.671 127.804" fill="#F9FBFC"/>
<path d="M284.951 127.8C285.602 127.8 286.226 127.542 286.686 127.082C287.146 126.621 287.405 125.997 287.405 125.347C287.405 124.696 287.146 124.072 286.686 123.612C286.226 123.152 285.602 122.894 284.951 122.894C284.301 122.894 283.677 123.152 283.217 123.612C282.757 124.072 282.498 124.696 282.498 125.347C282.498 125.997 282.757 126.621 283.217 127.082C283.677 127.542 284.301 127.8 284.951 127.8Z" fill="#F9FBFC"/>
<path d="M272.324 127.8C272.974 127.8 273.598 127.542 274.058 127.082C274.518 126.621 274.777 125.997 274.777 125.347C274.777 124.696 274.518 124.072 274.058 123.612C273.598 123.152 272.974 122.894 272.324 122.894C271.673 122.894 271.049 123.152 270.589 123.612C270.129 124.072 269.87 124.696 269.87 125.347C269.87 125.997 270.129 126.621 270.589 127.082C271.049 127.542 271.673 127.8 272.324 127.8Z" fill="#F9FBFC"/>
<path d="M297.641 127.8C298.29 127.798 298.913 127.54 299.373 127.083C299.83 126.619 300.088 125.995 300.091 125.344C300.091 124.693 299.832 124.069 299.372 123.609C298.912 123.149 298.288 122.89 297.638 122.89C296.987 122.89 296.363 123.149 295.903 123.609C295.443 124.069 295.184 124.693 295.184 125.344C295.184 125.989 295.44 126.607 295.897 127.063C296.353 127.519 296.971 127.776 297.616 127.776" fill="#F9FBFC"/>
<path d="M185.331 81.652C185.582 81.6525 185.828 81.5783 186.038 81.4387C186.247 81.2991 186.411 81.1005 186.507 80.868C186.603 80.6354 186.628 80.3795 186.579 80.1327C186.53 79.8858 186.409 79.6592 186.23 79.4815C185.989 79.2466 185.667 79.1138 185.331 79.1106C185.079 79.1113 184.834 79.1864 184.625 79.3265C184.417 79.4665 184.255 79.6652 184.159 79.8975C184.063 80.1297 184.039 80.3852 184.088 80.6314C184.138 80.8777 184.259 81.1038 184.437 81.2812C184.554 81.3992 184.693 81.4927 184.846 81.5564C185 81.6201 185.164 81.6526 185.331 81.652Z" fill="#58C2C0"/>
<path d="M185.331 76.4352C185.668 76.4352 185.991 76.3014 186.229 76.0631C186.468 75.8248 186.602 75.5015 186.602 75.1645C186.602 74.8275 186.468 74.5043 186.229 74.266C185.991 74.0277 185.668 73.8938 185.331 73.8938C185.165 73.8933 185 73.9258 184.847 73.9894C184.693 74.0531 184.554 74.1467 184.437 74.2647C184.314 74.3827 184.217 74.5243 184.15 74.681C184.083 74.8377 184.049 75.0063 184.049 75.1767C184.049 75.347 184.083 75.5156 184.15 75.6723C184.217 75.8291 184.314 75.9707 184.437 76.0887C184.554 76.2067 184.693 76.3003 184.847 76.3639C185 76.4276 185.165 76.4601 185.331 76.4596" fill="#58C2C0"/>
<path d="M158.925 81.6525C159.262 81.6518 159.585 81.5186 159.825 81.2816C159.945 81.1618 160.04 81.0197 160.104 80.8632C160.169 80.7067 160.203 80.539 160.203 80.3696C160.203 80.2002 160.169 80.0325 160.104 79.876C160.04 79.7196 159.945 79.5774 159.825 79.4576C159.705 79.3378 159.563 79.2428 159.407 79.178C159.25 79.1132 159.082 79.0798 158.913 79.0798C158.744 79.0798 158.576 79.1132 158.419 79.178C158.263 79.2428 158.121 79.3378 158.001 79.4576C157.823 79.6353 157.701 79.862 157.652 80.1088C157.603 80.3557 157.628 80.6116 157.724 80.8441C157.821 81.0766 157.984 81.2752 158.193 81.4148C158.403 81.5544 158.649 81.6287 158.901 81.6282" fill="#58C2C0"/>
<path d="M172.022 81.652C172.359 81.652 172.682 81.5182 172.92 81.2799C173.159 81.0415 173.292 80.7183 173.292 80.3813C173.292 80.0443 173.159 79.7211 172.92 79.4828C172.682 79.2445 172.359 79.1106 172.022 79.1106C171.685 79.1106 171.362 79.2445 171.123 79.4828C170.885 79.7211 170.751 80.0443 170.751 80.3813C170.751 80.7183 170.885 81.0415 171.123 81.2799C171.362 81.5182 171.685 81.652 172.022 81.652Z" fill="#58C2C0"/>
<path d="M165.467 81.652C165.804 81.652 166.128 81.5182 166.366 81.2799C166.604 81.0415 166.738 80.7183 166.738 80.3813C166.738 80.0443 166.604 79.7211 166.366 79.4828C166.128 79.2445 165.804 79.1106 165.467 79.1106C165.13 79.1106 164.807 79.2445 164.569 79.4828C164.331 79.7211 164.197 80.0443 164.197 80.3813C164.197 80.7183 164.331 81.0415 164.569 81.2799C164.807 81.5182 165.13 81.652 165.467 81.652Z" fill="#58C2C0"/>
<path d="M178.551 81.652C178.803 81.6525 179.049 81.5783 179.258 81.4387C179.468 81.2991 179.631 81.1005 179.728 80.868C179.824 80.6354 179.849 80.3795 179.8 80.1327C179.751 79.8858 179.629 79.6592 179.451 79.4815C179.21 79.2466 178.888 79.1138 178.551 79.1106C178.3 79.1113 178.055 79.1864 177.846 79.3265C177.637 79.4665 177.475 79.6652 177.38 79.8975C177.284 80.1297 177.259 80.3852 177.309 80.6314C177.358 80.8777 177.479 81.1038 177.657 81.2812C177.774 81.3992 177.914 81.4927 178.067 81.5564C178.22 81.6201 178.385 81.6526 178.551 81.652Z" fill="#58C2C0"/>
<path d="M158.925 76.4347C159.262 76.434 159.585 76.3008 159.825 76.0638C159.946 75.9449 160.043 75.803 160.108 75.6464C160.174 75.4898 160.208 75.3216 160.208 75.1518C160.208 74.9819 160.174 74.8138 160.108 74.6571C160.043 74.5005 159.946 74.3587 159.825 74.2398C159.677 74.0924 159.495 73.9836 159.295 73.9232C159.095 73.8628 158.884 73.8526 158.679 73.8935C158.474 73.9343 158.283 74.025 158.121 74.1575C157.96 74.2899 157.834 74.4601 157.754 74.653C157.674 74.8458 157.643 75.0554 157.663 75.2632C157.683 75.471 157.754 75.6706 157.87 75.8443C157.986 76.0181 158.143 76.1606 158.327 76.2593C158.511 76.358 158.716 76.4099 158.925 76.4103" fill="#58C2C0"/>
<path d="M172.022 76.4352C172.359 76.4352 172.682 76.3014 172.92 76.0631C173.159 75.8247 173.292 75.5015 173.292 75.1645C173.292 74.8275 173.159 74.5043 172.92 74.266C172.682 74.0277 172.359 73.8938 172.022 73.8938C171.685 73.8938 171.362 74.0277 171.123 74.266C170.885 74.5043 170.751 74.8275 170.751 75.1645C170.751 75.5015 170.885 75.8247 171.123 76.0631C171.362 76.3014 171.685 76.4352 172.022 76.4352Z" fill="#58C2C0"/>
<path d="M165.467 76.4352C165.804 76.4352 166.128 76.3014 166.366 76.0631C166.604 75.8247 166.738 75.5015 166.738 75.1645C166.738 74.8275 166.604 74.5043 166.366 74.266C166.128 74.0277 165.804 73.8938 165.467 73.8938C165.13 73.8938 164.807 74.0277 164.569 74.266C164.331 74.5043 164.197 74.8275 164.197 75.1645C164.197 75.5015 164.331 75.8247 164.569 76.0631C164.807 76.3014 165.13 76.4352 165.467 76.4352Z" fill="#58C2C0"/>
<path d="M178.551 76.4352C178.888 76.4352 179.212 76.3014 179.45 76.0631C179.688 75.8248 179.822 75.5015 179.822 75.1645C179.822 74.8275 179.688 74.5043 179.45 74.266C179.212 74.0277 178.888 73.8938 178.551 73.8938C178.385 73.8933 178.221 73.9258 178.067 73.9894C177.914 74.0531 177.775 74.1467 177.658 74.2647C177.535 74.3827 177.437 74.5243 177.37 74.681C177.304 74.8377 177.269 75.0063 177.269 75.1767C177.269 75.347 177.304 75.5156 177.37 75.6723C177.437 75.8291 177.535 75.9707 177.658 76.0887C177.775 76.2067 177.914 76.3003 178.067 76.3639C178.221 76.4276 178.385 76.4601 178.551 76.4596" fill="#58C2C0"/>
<path d="M132.276 81.6528C132.528 81.6533 132.774 81.5791 132.984 81.4395C133.193 81.2999 133.356 81.1013 133.453 80.8687C133.549 80.6362 133.574 80.3803 133.525 80.1335C133.476 79.8866 133.355 79.66 133.176 79.4823C132.934 79.2404 132.606 79.1045 132.264 79.1045C131.922 79.1045 131.594 79.2404 131.352 79.4823C131.11 79.7241 130.974 80.0522 130.974 80.3943C130.974 80.7363 131.11 81.0644 131.352 81.3063C131.592 81.5433 131.915 81.6765 132.252 81.6771" fill="#58C2C0"/>
<path d="M145.373 81.652C145.71 81.652 146.034 81.5182 146.272 81.2799C146.51 81.0415 146.644 80.7183 146.644 80.3813C146.644 80.0443 146.51 79.7211 146.272 79.4828C146.034 79.2445 145.71 79.1106 145.373 79.1106C145.036 79.1106 144.713 79.2445 144.475 79.4828C144.237 79.7211 144.103 80.0443 144.103 80.3813C144.103 80.7183 144.237 81.0415 144.475 81.2799C144.713 81.5182 145.036 81.652 145.373 81.652Z" fill="#58C2C0"/>
<path d="M138.825 81.652C139.162 81.652 139.485 81.5182 139.724 81.2799C139.962 81.0415 140.096 80.7183 140.096 80.3813C140.096 80.0443 139.962 79.7211 139.724 79.4828C139.485 79.2445 139.162 79.1106 138.825 79.1106C138.488 79.1106 138.165 79.2445 137.927 79.4828C137.688 79.7211 137.554 80.0443 137.554 80.3813C137.554 80.7183 137.688 81.0415 137.927 81.2799C138.165 81.5182 138.488 81.652 138.825 81.652Z" fill="#58C2C0"/>
<path d="M151.927 81.652C152.263 81.6518 152.584 81.5184 152.821 81.2812C152.999 81.1038 153.12 80.8777 153.17 80.6314C153.219 80.3852 153.195 80.1297 153.099 79.8975C153.003 79.6652 152.841 79.4665 152.632 79.3265C152.424 79.1864 152.179 79.1113 151.927 79.1106C151.591 79.1138 151.269 79.2466 151.028 79.4815C150.849 79.6592 150.728 79.8858 150.679 80.1327C150.629 80.3795 150.655 80.6354 150.751 80.868C150.847 81.1005 151.011 81.2991 151.22 81.4387C151.43 81.5783 151.676 81.6525 151.927 81.652Z" fill="#58C2C0"/>
<path d="M132.277 76.4352C132.486 76.4348 132.691 76.3829 132.875 76.2842C133.059 76.1855 133.216 76.043 133.332 75.8692C133.447 75.6955 133.519 75.4959 133.539 75.2881C133.559 75.0803 133.528 74.8707 133.448 74.6779C133.368 74.485 133.242 74.3148 133.08 74.1823C132.919 74.0499 132.728 73.9592 132.523 73.9184C132.318 73.8775 132.106 73.8877 131.907 73.9481C131.707 74.0085 131.525 74.1173 131.377 74.2647C131.256 74.3836 131.159 74.5255 131.093 74.6821C131.028 74.8387 130.994 75.0068 130.994 75.1767C130.994 75.3465 131.028 75.5147 131.093 75.6713C131.159 75.8279 131.256 75.9698 131.377 76.0887C131.617 76.3257 131.94 76.4589 132.277 76.4596" fill="#58C2C0"/>
<path d="M145.373 76.4352C145.71 76.4352 146.034 76.3014 146.272 76.0631C146.51 75.8247 146.644 75.5015 146.644 75.1645C146.644 74.8275 146.51 74.5043 146.272 74.266C146.034 74.0277 145.71 73.8938 145.373 73.8938C145.036 73.8938 144.713 74.0277 144.475 74.266C144.237 74.5043 144.103 74.8275 144.103 75.1645C144.103 75.5015 144.237 75.8247 144.475 76.0631C144.713 76.3014 145.036 76.4352 145.373 76.4352Z" fill="#58C2C0"/>
<path d="M138.825 76.4352C139.162 76.4352 139.485 76.3014 139.724 76.0631C139.962 75.8247 140.096 75.5015 140.096 75.1645C140.096 74.8275 139.962 74.5043 139.724 74.266C139.485 74.0277 139.162 73.8938 138.825 73.8938C138.488 73.8938 138.165 74.0277 137.927 74.266C137.688 74.5043 137.554 74.8275 137.554 75.1645C137.554 75.5015 137.688 75.8247 137.927 76.0631C138.165 76.3014 138.488 76.4352 138.825 76.4352Z" fill="#58C2C0"/>
<path d="M151.927 76.4347C152.262 76.4344 152.584 76.301 152.821 76.0638C152.944 75.9458 153.041 75.8042 153.108 75.6474C153.175 75.4907 153.209 75.3221 153.209 75.1518C153.209 74.9814 153.175 74.8128 153.108 74.6561C153.041 74.4994 152.944 74.3578 152.821 74.2398C152.584 74.0026 152.262 73.8691 151.927 73.8689C151.59 73.8689 151.267 74.0028 151.029 74.2411C150.79 74.4794 150.656 74.8026 150.656 75.1396C150.656 75.4766 150.79 75.7998 151.029 76.0382C151.267 76.2765 151.59 76.4103 151.927 76.4103" fill="#58C2C0"/>
<path d="M105.871 81.652C106.037 81.6526 106.201 81.6201 106.355 81.5564C106.508 81.4927 106.648 81.3992 106.765 81.2812C106.942 81.1038 107.064 80.8777 107.113 80.6314C107.163 80.3852 107.138 80.1297 107.042 79.8975C106.947 79.6652 106.784 79.4665 106.576 79.3265C106.367 79.1864 106.122 79.1113 105.871 79.1106C105.534 79.1138 105.212 79.2466 104.971 79.4815C104.793 79.6592 104.671 79.8858 104.622 80.1327C104.573 80.3795 104.598 80.6354 104.694 80.868C104.791 81.1005 104.954 81.2991 105.163 81.4387C105.373 81.5783 105.619 81.6525 105.871 81.652Z" fill="#58C2C0"/>
<path d="M118.968 81.652C119.305 81.652 119.628 81.5182 119.866 81.2799C120.105 81.0415 120.238 80.7183 120.238 80.3813C120.238 80.0443 120.105 79.7211 119.866 79.4828C119.628 79.2445 119.305 79.1106 118.968 79.1106C118.631 79.1106 118.308 79.2445 118.069 79.4828C117.831 79.7211 117.697 80.0443 117.697 80.3813C117.697 80.7183 117.831 81.0415 118.069 81.2799C118.308 81.5182 118.631 81.652 118.968 81.652Z" fill="#58C2C0"/>
<path d="M112.413 81.652C112.75 81.652 113.074 81.5182 113.312 81.2799C113.55 81.0415 113.684 80.7183 113.684 80.3813C113.684 80.0443 113.55 79.7211 113.312 79.4828C113.074 79.2445 112.75 79.1106 112.413 79.1106C112.076 79.1106 111.753 79.2445 111.515 79.4828C111.276 79.7211 111.143 80.0443 111.143 80.3813C111.143 80.7183 111.276 81.0415 111.515 81.2799C111.753 81.5182 112.076 81.652 112.413 81.652Z" fill="#58C2C0"/>
<path d="M125.516 81.6528C125.767 81.6533 126.013 81.5791 126.223 81.4395C126.432 81.2999 126.596 81.1013 126.692 80.8687C126.788 80.6362 126.814 80.3803 126.764 80.1335C126.715 79.8866 126.594 79.66 126.415 79.4823C126.174 79.2404 125.845 79.1045 125.503 79.1045C125.161 79.1045 124.833 79.2404 124.591 79.4823C124.35 79.7241 124.214 80.0522 124.214 80.3943C124.214 80.7363 124.35 81.0644 124.591 81.3063C124.831 81.5433 125.154 81.6765 125.491 81.6771" fill="#58C2C0"/>
<path d="M105.871 76.4347C106.037 76.4352 106.202 76.4027 106.355 76.339C106.509 76.2754 106.648 76.1818 106.765 76.0638C106.888 75.9458 106.986 75.8042 107.052 75.6474C107.119 75.4907 107.153 75.3221 107.153 75.1518C107.153 74.9814 107.119 74.8129 107.052 74.6561C106.986 74.4994 106.888 74.3578 106.765 74.2398C106.648 74.1218 106.509 74.0282 106.355 73.9646C106.202 73.9009 106.037 73.8684 105.871 73.8689C105.534 73.8689 105.211 74.0028 104.973 74.2411C104.734 74.4794 104.6 74.8026 104.6 75.1396C104.6 75.4766 104.734 75.7999 104.973 76.0382C105.211 76.2765 105.534 76.4103 105.871 76.4103" fill="#58C2C0"/>
<path d="M118.968 76.4352C119.305 76.4352 119.628 76.3014 119.866 76.0631C120.105 75.8247 120.238 75.5015 120.238 75.1645C120.238 74.8275 120.105 74.5043 119.866 74.266C119.628 74.0277 119.305 73.8938 118.968 73.8938C118.631 73.8938 118.308 74.0277 118.069 74.266C117.831 74.5043 117.697 74.8275 117.697 75.1645C117.697 75.5015 117.831 75.8247 118.069 76.0631C118.308 76.3014 118.631 76.4352 118.968 76.4352Z" fill="#58C2C0"/>
<path d="M112.413 76.4352C112.75 76.4352 113.074 76.3014 113.312 76.0631C113.55 75.8247 113.684 75.5015 113.684 75.1645C113.684 74.8275 113.55 74.5043 113.312 74.266C113.074 74.0277 112.75 73.8938 112.413 73.8938C112.076 73.8938 111.753 74.0277 111.515 74.266C111.276 74.5043 111.143 74.8275 111.143 75.1645C111.143 75.5015 111.276 75.8247 111.515 76.0631C111.753 76.3014 112.076 76.4352 112.413 76.4352Z" fill="#58C2C0"/>
<path d="M125.515 76.4352C125.724 76.4348 125.93 76.3829 126.113 76.2842C126.297 76.1855 126.454 76.043 126.57 75.8692C126.686 75.6955 126.757 75.4959 126.777 75.2881C126.798 75.0803 126.766 74.8707 126.686 74.6779C126.607 74.485 126.48 74.3148 126.319 74.1823C126.158 74.0499 125.966 73.9592 125.761 73.9184C125.557 73.8775 125.345 73.8877 125.145 73.9481C124.945 74.0085 124.763 74.1173 124.615 74.2647C124.494 74.3836 124.398 74.5255 124.332 74.6821C124.266 74.8387 124.232 75.0068 124.232 75.1767C124.232 75.3465 124.266 75.5147 124.332 75.6713C124.398 75.8279 124.494 75.9698 124.615 76.0887C124.855 76.3257 125.178 76.4589 125.515 76.4596" fill="#58C2C0"/>
</svg>
